<mxfile host="app.diagrams.net" modified="2024-02-12T19:57:30.849Z" agent="Mozilla/5.0 (Windows NT 10.0; Win64; x64) AppleWebKit/537.36 (KHTML, like Gecko) Chrome/121.0.0.0 Safari/537.36" etag="VahJ5hesK4jNUGt5T3Gl" version="23.1.3" type="device">
  <diagram name="Страница — 1" id="H8EYi_SQNLGEsXxeCmDp">
    <mxGraphModel dx="1615" dy="815" grid="1" gridSize="10" guides="1" tooltips="1" connect="1" arrows="1" fold="1" page="1" pageScale="1" pageWidth="827" pageHeight="1169" math="0" shadow="0">
      <root>
        <mxCell id="0" />
        <mxCell id="1" parent="0" />
        <mxCell id="eU7zliBNqd47uEhWq2nO-8" value="" style="edgeStyle=orthogonalEdgeStyle;rounded=0;orthogonalLoop=1;jettySize=auto;html=1;entryX=0;entryY=0.5;entryDx=0;entryDy=0;" edge="1" parent="1" source="eU7zliBNqd47uEhWq2nO-5" target="eU7zliBNqd47uEhWq2nO-7">
          <mxGeometry relative="1" as="geometry" />
        </mxCell>
        <mxCell id="eU7zliBNqd47uEhWq2nO-5" value="Restaurant" style="rounded=0;whiteSpace=wrap;html=1;" vertex="1" parent="1">
          <mxGeometry x="20" y="20" width="120" height="60" as="geometry" />
        </mxCell>
        <mxCell id="eU7zliBNqd47uEhWq2nO-10" value="" style="edgeStyle=orthogonalEdgeStyle;rounded=0;orthogonalLoop=1;jettySize=auto;html=1;entryX=0;entryY=0.5;entryDx=0;entryDy=0;" edge="1" parent="1" source="eU7zliBNqd47uEhWq2nO-7" target="eU7zliBNqd47uEhWq2nO-9">
          <mxGeometry relative="1" as="geometry" />
        </mxCell>
        <mxCell id="eU7zliBNqd47uEhWq2nO-22" value="" style="edgeStyle=orthogonalEdgeStyle;rounded=0;orthogonalLoop=1;jettySize=auto;html=1;entryX=0;entryY=0.5;entryDx=0;entryDy=0;exitX=0.5;exitY=1;exitDx=0;exitDy=0;" edge="1" parent="1" source="eU7zliBNqd47uEhWq2nO-5" target="eU7zliBNqd47uEhWq2nO-25">
          <mxGeometry relative="1" as="geometry">
            <Array as="points">
              <mxPoint x="80" y="580" />
            </Array>
          </mxGeometry>
        </mxCell>
        <mxCell id="eU7zliBNqd47uEhWq2nO-7" value="Menu" style="rounded=0;whiteSpace=wrap;html=1;" vertex="1" parent="1">
          <mxGeometry x="110" y="110" width="120" height="60" as="geometry" />
        </mxCell>
        <mxCell id="eU7zliBNqd47uEhWq2nO-12" value="" style="edgeStyle=orthogonalEdgeStyle;rounded=0;orthogonalLoop=1;jettySize=auto;html=1;entryX=0;entryY=0.5;entryDx=0;entryDy=0;" edge="1" parent="1" source="eU7zliBNqd47uEhWq2nO-9" target="eU7zliBNqd47uEhWq2nO-11">
          <mxGeometry relative="1" as="geometry" />
        </mxCell>
        <mxCell id="eU7zliBNqd47uEhWq2nO-24" value="" style="edgeStyle=orthogonalEdgeStyle;rounded=0;orthogonalLoop=1;jettySize=auto;html=1;entryX=0;entryY=0.5;entryDx=0;entryDy=0;" edge="1" parent="1" source="eU7zliBNqd47uEhWq2nO-9" target="eU7zliBNqd47uEhWq2nO-23">
          <mxGeometry relative="1" as="geometry" />
        </mxCell>
        <mxCell id="eU7zliBNqd47uEhWq2nO-9" value="Dish" style="rounded=0;whiteSpace=wrap;html=1;" vertex="1" parent="1">
          <mxGeometry x="194" y="280" width="120" height="60" as="geometry" />
        </mxCell>
        <mxCell id="eU7zliBNqd47uEhWq2nO-14" value="" style="edgeStyle=orthogonalEdgeStyle;rounded=0;orthogonalLoop=1;jettySize=auto;html=1;entryX=0;entryY=0.5;entryDx=0;entryDy=0;" edge="1" parent="1" source="eU7zliBNqd47uEhWq2nO-11" target="eU7zliBNqd47uEhWq2nO-13">
          <mxGeometry relative="1" as="geometry" />
        </mxCell>
        <mxCell id="eU7zliBNqd47uEhWq2nO-11" value="Ingredient" style="rounded=0;whiteSpace=wrap;html=1;" vertex="1" parent="1">
          <mxGeometry x="280" y="360" width="120" height="60" as="geometry" />
        </mxCell>
        <mxCell id="eU7zliBNqd47uEhWq2nO-16" value="" style="edgeStyle=orthogonalEdgeStyle;rounded=0;orthogonalLoop=1;jettySize=auto;html=1;entryX=0;entryY=0.5;entryDx=0;entryDy=0;" edge="1" parent="1" source="eU7zliBNqd47uEhWq2nO-13" target="eU7zliBNqd47uEhWq2nO-15">
          <mxGeometry relative="1" as="geometry" />
        </mxCell>
        <mxCell id="eU7zliBNqd47uEhWq2nO-18" value="" style="edgeStyle=orthogonalEdgeStyle;rounded=0;orthogonalLoop=1;jettySize=auto;html=1;entryX=0;entryY=0.5;entryDx=0;entryDy=0;" edge="1" parent="1" source="eU7zliBNqd47uEhWq2nO-13" target="eU7zliBNqd47uEhWq2nO-17">
          <mxGeometry relative="1" as="geometry" />
        </mxCell>
        <mxCell id="eU7zliBNqd47uEhWq2nO-13" value="Manufacturer" style="rounded=0;whiteSpace=wrap;html=1;" vertex="1" parent="1">
          <mxGeometry x="430" y="360" width="120" height="60" as="geometry" />
        </mxCell>
        <mxCell id="eU7zliBNqd47uEhWq2nO-15" value="Person" style="rounded=0;whiteSpace=wrap;html=1;fillColor=#d5e8d4;strokeColor=#82b366;" vertex="1" parent="1">
          <mxGeometry x="520" y="440" width="120" height="60" as="geometry" />
        </mxCell>
        <mxCell id="eU7zliBNqd47uEhWq2nO-20" value="" style="edgeStyle=orthogonalEdgeStyle;rounded=0;orthogonalLoop=1;jettySize=auto;html=1;" edge="1" parent="1" source="eU7zliBNqd47uEhWq2nO-17" target="eU7zliBNqd47uEhWq2nO-19">
          <mxGeometry relative="1" as="geometry" />
        </mxCell>
        <mxCell id="eU7zliBNqd47uEhWq2nO-17" value="City" style="rounded=0;whiteSpace=wrap;html=1;" vertex="1" parent="1">
          <mxGeometry x="580" y="360" width="120" height="60" as="geometry" />
        </mxCell>
        <mxCell id="eU7zliBNqd47uEhWq2nO-19" value="Country" style="rounded=0;whiteSpace=wrap;html=1;" vertex="1" parent="1">
          <mxGeometry x="730" y="360" width="120" height="60" as="geometry" />
        </mxCell>
        <mxCell id="eU7zliBNqd47uEhWq2nO-21" value="Category" style="rounded=0;whiteSpace=wrap;html=1;" vertex="1" parent="1">
          <mxGeometry x="194" y="190" width="120" height="60" as="geometry" />
        </mxCell>
        <mxCell id="eU7zliBNqd47uEhWq2nO-23" value="Qualification" style="rounded=0;whiteSpace=wrap;html=1;fillColor=#fff2cc;strokeColor=#d6b656;" vertex="1" parent="1">
          <mxGeometry x="280" y="440" width="120" height="60" as="geometry" />
        </mxCell>
        <mxCell id="eU7zliBNqd47uEhWq2nO-30" value="" style="edgeStyle=orthogonalEdgeStyle;rounded=0;orthogonalLoop=1;jettySize=auto;html=1;" edge="1" parent="1" source="eU7zliBNqd47uEhWq2nO-25" target="eU7zliBNqd47uEhWq2nO-28">
          <mxGeometry relative="1" as="geometry" />
        </mxCell>
        <mxCell id="eU7zliBNqd47uEhWq2nO-31" value="" style="edgeStyle=orthogonalEdgeStyle;rounded=0;orthogonalLoop=1;jettySize=auto;html=1;entryX=0;entryY=0.5;entryDx=0;entryDy=0;" edge="1" parent="1" source="eU7zliBNqd47uEhWq2nO-25" target="eU7zliBNqd47uEhWq2nO-29">
          <mxGeometry relative="1" as="geometry" />
        </mxCell>
        <mxCell id="eU7zliBNqd47uEhWq2nO-25" value="Employee" style="rounded=0;whiteSpace=wrap;html=1;" vertex="1" parent="1">
          <mxGeometry x="110" y="550" width="120" height="60" as="geometry" />
        </mxCell>
        <mxCell id="eU7zliBNqd47uEhWq2nO-27" value="" style="edgeStyle=orthogonalEdgeStyle;rounded=0;orthogonalLoop=1;jettySize=auto;html=1;entryX=0;entryY=0.5;entryDx=0;entryDy=0;exitX=0.5;exitY=1;exitDx=0;exitDy=0;" edge="1" parent="1" source="eU7zliBNqd47uEhWq2nO-7" target="eU7zliBNqd47uEhWq2nO-21">
          <mxGeometry relative="1" as="geometry">
            <mxPoint x="180" y="290" as="sourcePoint" />
            <mxPoint x="194" y="350" as="targetPoint" />
            <Array as="points">
              <mxPoint x="170" y="220" />
            </Array>
          </mxGeometry>
        </mxCell>
        <mxCell id="eU7zliBNqd47uEhWq2nO-28" value="EmployeeType" style="rounded=0;whiteSpace=wrap;html=1;" vertex="1" parent="1">
          <mxGeometry x="256" y="550" width="120" height="60" as="geometry" />
        </mxCell>
        <mxCell id="eU7zliBNqd47uEhWq2nO-29" value="Person" style="rounded=0;whiteSpace=wrap;html=1;fillColor=#d5e8d4;strokeColor=#82b366;" vertex="1" parent="1">
          <mxGeometry x="194" y="650" width="120" height="60" as="geometry" />
        </mxCell>
        <mxCell id="eU7zliBNqd47uEhWq2nO-32" value="Qualification" style="rounded=0;whiteSpace=wrap;html=1;fillColor=#fff2cc;strokeColor=#d6b656;" vertex="1" parent="1">
          <mxGeometry x="194" y="740" width="120" height="60" as="geometry" />
        </mxCell>
        <mxCell id="eU7zliBNqd47uEhWq2nO-33" value="" style="edgeStyle=orthogonalEdgeStyle;rounded=0;orthogonalLoop=1;jettySize=auto;html=1;entryX=0;entryY=0.5;entryDx=0;entryDy=0;exitX=0.5;exitY=1;exitDx=0;exitDy=0;" edge="1" parent="1" source="eU7zliBNqd47uEhWq2nO-25" target="eU7zliBNqd47uEhWq2nO-32">
          <mxGeometry relative="1" as="geometry">
            <mxPoint x="83.47000000000003" y="380" as="sourcePoint" />
            <mxPoint x="109.47000000000003" y="445" as="targetPoint" />
          </mxGeometry>
        </mxCell>
      </root>
    </mxGraphModel>
  </diagram>
</mxfile>
